<svg width="1014" height="662" viewBox="0 0 1014 662" fill="none" xmlns="http://www.w3.org/2000/svg">
<path d="M817.538 249.987C788.807 107.387 660.79 0.333374 507 0.333374C384.897 0.333374 278.85 68.12 226.037 167.32C98.865 180.547 0 285.947 0 413.667C0 550.48 113.653 661.666 253.5 661.666H802.75C919.36 661.666 1014 569.08 1014 455C1014 345.88 927.388 257.427 817.538 249.987ZM802.75 579H253.5C160.128 579 84.5 505.013 84.5 413.667C84.5 322.32 160.128 248.333 253.5 248.333H283.497C311.383 152.853 400.53 83 507 83C635.44 83 739.375 184.68 739.375 310.333V331H802.75C872.885 331 929.5 386.387 929.5 455C929.5 523.613 872.885 579 802.75 579Z" fill="#ED6930"/>
</svg>
